<svg xmlns="http://www.w3.org/2000/svg" viewBox="0 0 1024 1024" width="32" height="32">
  <path
    d="M672.099678 576.099724h-319.999846c-17.599992 0-31.999985-14.399993-31.999985-31.999984s14.399993-31.999985 31.999985-31.999985h319.999846c17.599992 0 31.999985 14.399993 31.999985 31.999985s-14.399993 31.999985-31.999985 31.999984z"
    fill="#409EFF"
  />
  <path
    d="M909.999565 255.999878H798.199618c-16.399992 0-29.999986-12.399994-31.799985-28.599987-6.299997-57.599972-31.799985-110.899947-73.399965-152.399927C644.699692 26.599987 580.399722 0 511.999755 0S379.299818 26.599987 330.999842 74.999964c-41.59998 41.59998-67.099968 94.799955-73.399965 152.399927-1.799999 16.299992-15.399993 28.599986-31.799985 28.599987H113.999945C50.999976 255.999878 0 306.999853 0 369.999823v539.999742c0 62.99997 50.999976 113.999945 113.999945 113.999945h365.999825c17.699992 0 31.999985-14.299993 31.999985-31.999985s-14.299993-31.999985-31.999985-31.999984H113.999945c-27.499987 0-49.999976-22.499989-49.999976-49.999976V799.899617c0-18.099991 15.099993-32.799984 33.199984-31.999984 1.599999 0.1 3.199998 0.1 4.799998 0.1h313.99985c17.699992 0 31.999985-14.299993 31.999985-31.999985s-14.299993-31.999985-31.999985-31.999985H133.999936c-38.699981 0-69.999967-31.299985-69.999967-69.999966V369.999823c0-27.499987 22.499989-49.999976 49.999976-49.999976h795.99962c27.499987 0 49.999976 22.499989 49.999976 49.999976v109.999947c0 17.699992 14.299993 31.999985 31.999984 31.999985s31.999985-14.299993 31.999985-31.999985V369.999823c0-62.99997-50.999976-113.999945-113.999945-113.999945z m-241.199885 0H355.19983c-20.09999 0-35.399983-18.399991-31.399985-38.199982C341.499837 130.199938 419.199799 63.999969 511.999755 63.999969s170.499918 66.199968 188.19991 153.799927c3.999998 19.799991-11.299995 38.199982-31.399985 38.199982z"
    fill="#409EFF"
  />
  <path
    d="M960.89954 715.599658c-4.899998-17.399992-11.999994-33.799984-20.99999-49.099977l37.499982-42.49998c-30.799985-51.299975-68.899967-66.799968-68.899967-66.799968l-41.19998 37.399982c-15.399993-8.899996-31.999985-15.899992-49.599976-20.49999l-3.499999-55.899973c-57.999972-14.499993-95.899954 1.399999-95.899954 1.399999l-2.599998 53.699975c-17.299992 4.399998-33.799984 10.799995-49.099977 19.29999l-38.999981-35.399983s-38.099982 15.499993-68.899967 66.799968c9.799995 11.099995 28.999986 23.899989 30.199985 40.199981 0.3 3.999998-18.499991 51.599975-19.299991 51.699975l-49.999976 2.399999s-15.999992 37.899982-1.399999 95.899954l49.499976 3.099999c4.699998 19.699991 12.199994 38.199982 22.09999 55.199973l-32.599985 35.999983s15.499993 38.099982 66.799968 68.899967l37.199983-32.699984c16.799992 10.099995 35.199983 17.799991 54.699973 22.599989l2.399999 49.199977s37.899982 15.899992 95.899954 1.399999l3.299999-51.299976c19.799991-5.299997 38.299982-13.399994 55.299973-23.899988l39.399981 34.699983c51.299975-30.799985 66.799968-68.899967 66.799969-68.899967l-35.999983-39.599981c8.799996-15.899992 15.499993-33.099984 19.79999-51.299975l55.099974-3.399999c14.499993-57.999972-1.499999-95.899954-1.499999-95.899954l-55.499974-2.699998zM767.999633 928.099556c-88.399958 0-159.999923-71.599966-159.999924-159.999924s71.599966-159.999923 159.999924-159.999923 159.999923 71.599966 159.999923 159.999923-71.599966 159.999923-159.999923 159.999924z"
    fill="#409EFF"
  />
  <path
    d="M767.999633 768.099632m-63.99997 0a63.999969 63.999969 0 1 0 127.999939 0 63.999969 63.999969 0 1 0-127.999939 0Z"
    fill="#409EFF"
  />
</svg>
